<?xml version="1.0" encoding="utf-8"?>
<!-- Generator: Adobe Illustrator 16.0.0, SVG Export Plug-In . SVG Version: 6.00 Build 0)  -->
<!DOCTYPE svg PUBLIC "-//W3C//DTD SVG 1.1//EN" "http://www.w3.org/Graphics/SVG/1.1/DTD/svg11.dtd">
<svg version="1.1" id="Layer_1" xmlns="http://www.w3.org/2000/svg" xmlns:xlink="http://www.w3.org/1999/xlink" x="0px" y="0px"
	 width="1000px" height="1000px" viewBox="0 0 1000 1000" enable-background="new 0 0 1000 1000" xml:space="preserve">
<rect fill="#3F1115" width="1000" height="1000"/>
<path fill="#C1272D" d="M574.61,290.19c0,19.85-7.7,37.89-20.301,51.3c-1.09,1.17-2.229,2.31-3.399,3.4
	c-13.41,12.6-31.45,20.3-51.3,20.3c-19.851,0-37.89-7.7-51.3-20.3c-1.17-1.09-2.31-2.23-3.4-3.4c-12.6-13.41-20.3-31.45-20.3-51.3
	c0-41.42,33.58-75,75-75C541.03,215.19,574.61,248.77,574.61,290.19z"/>
<path fill="#CD5257" d="M680.61,395.19c0,41.42-33.58,75-75,75c-19.851,0-37.891-7.7-51.301-20.301
	c-1.09-1.17-2.229-2.31-3.399-3.399c-13.41-12.601-31.45-20.3-51.3-20.3c-19.851,0-37.89,7.699-51.3,20.3
	c-1.17,1.09-2.31,2.229-3.4,3.399c-13.41,12.601-31.45,20.301-51.3,20.301c-41.42,0-75-33.58-75-75c0-41.42,33.58-75,75-75
	c19.85,0,37.89,7.7,51.3,20.3c1.09,1.17,2.23,2.31,3.4,3.4c13.41,12.6,31.45,20.3,51.3,20.3c19.85,0,37.89-7.7,51.3-20.3
	c1.17-1.09,2.31-2.23,3.399-3.4c13.41-12.6,31.45-20.3,51.301-20.3C647.03,320.19,680.61,353.77,680.61,395.19z"/>
<path fill="#DD1D2B" d="M448.31,445.49c-1.09,1.17-2.23,2.31-3.4,3.399C446,447.72,447.14,446.58,448.31,445.49z"/>
<path fill="#DD1D2B" d="M444.91,339.49c1.17,1.09,2.31,2.23,3.4,3.4C447.14,341.8,446,340.66,444.91,339.49z"/>
<path fill="#DD1D2B" d="M554.31,448.89c-1.17-1.09-2.31-2.229-3.399-3.399C552.08,446.58,553.22,447.72,554.31,448.89z"/>
<path fill="#DD1D2B" d="M550.91,342.89c1.09-1.17,2.229-2.31,3.399-3.4C553.22,340.66,552.08,341.8,550.91,342.89z"/>
<path fill="#DA7D81" d="M574.61,500.19c0,41.42-33.58,75-75,75c-19.851,0-37.891-7.7-51.301-20.301
	c-1.09-1.17-2.229-2.31-3.399-3.399c-13.41-12.601-31.45-20.3-51.3-20.3c-19.851,0-37.89,7.699-51.3,20.3
	c-1.17,1.09-2.31,2.229-3.4,3.399c-13.41,12.601-31.45,20.301-51.3,20.301c-41.42,0-75-33.58-75-75c0-41.421,33.58-75.001,75-75.001
	c19.85,0,37.89,7.701,51.3,20.301c1.09,1.17,2.23,2.31,3.4,3.4c13.41,12.6,31.45,20.299,51.3,20.299
	c19.85,0,37.89-7.699,51.3-20.299c1.17-1.091,2.31-2.23,3.399-3.4c13.41-12.6,31.45-20.301,51.301-20.301
	C541.03,425.189,574.61,458.77,574.61,500.19z"/>
<path fill="#DA7D81" d="M786.61,500.19c0,41.42-33.58,75-75,75c-19.851,0-37.891-7.7-51.301-20.301
	c-1.09-1.17-2.229-2.31-3.399-3.399c-13.41-12.601-31.45-20.3-51.3-20.3c-19.851,0-37.89,7.699-51.3,20.3
	c-1.17,1.09-2.311,2.229-3.4,3.399c-13.41,12.601-31.45,20.301-51.301,20.301c-41.419,0-75-33.58-75-75
	c0-41.421,33.58-75.001,75-75.001c19.851,0,37.891,7.701,51.301,20.301c1.09,1.17,2.23,2.31,3.4,3.4
	c13.41,12.6,31.449,20.299,51.3,20.299c19.85,0,37.89-7.699,51.3-20.299c1.17-1.091,2.31-2.23,3.399-3.4
	c13.41-12.6,31.45-20.301,51.301-20.301C753.03,425.189,786.61,458.77,786.61,500.19z"/>
<path fill="#E6A9AB" d="M680.61,605.19c0,41.42-33.58,75-75,75c-19.851,0-37.891-7.7-51.301-20.301
	c-1.09-1.17-2.229-2.31-3.399-3.399c-13.41-12.601-31.45-20.3-51.3-20.3c-19.851,0-37.89,7.699-51.3,20.3
	c-1.17,1.09-2.31,2.229-3.4,3.399c-13.41,12.601-31.45,20.301-51.3,20.301c-41.42,0-75-33.58-75-75c0-41.421,33.58-75.001,75-75.001
	c19.85,0,37.89,7.701,51.3,20.301c1.09,1.17,2.23,2.31,3.4,3.4c13.41,12.6,31.45,20.299,51.3,20.299
	c19.85,0,37.89-7.699,51.3-20.299c1.17-1.091,2.31-2.23,3.399-3.4c13.41-12.6,31.45-20.301,51.301-20.301
	C647.03,530.189,680.61,563.77,680.61,605.19z"/>
<path fill="#F3D4D5" d="M574.61,710.189c0,19.851-7.7,37.891-20.301,51.301c-1.09,1.17-2.229,2.31-3.399,3.4
	c-13.41,12.6-31.45,20.299-51.3,20.299c-19.851,0-37.89-7.699-51.3-20.299c-1.17-1.091-2.31-2.23-3.4-3.4
	c-12.6-13.41-20.3-31.45-20.3-51.301c0-41.42,33.58-75,75-75C541.03,635.189,574.61,668.77,574.61,710.189z"/>
<circle fill="none" stroke="#FFFFFF" stroke-width="19" stroke-miterlimit="10" cx="500" cy="500" r="356.895"/>
<circle fill="none" stroke="#FFFFFF" stroke-width="19" stroke-miterlimit="10" cx="500" cy="500" r="356.895"/>
<circle fill="none" stroke="#FFFFFF" stroke-width="19" stroke-miterlimit="10" cx="500" cy="500" r="314.063"/>
<circle fill="none" stroke="#FFFFFF" stroke-width="19" stroke-miterlimit="10" cx="500" cy="500" r="398.893"/>
</svg>
