<?xml version="1.0" encoding="utf-8"?>
<!-- Generator: Adobe Illustrator 16.0.0, SVG Export Plug-In . SVG Version: 6.00 Build 0)  -->
<!DOCTYPE svg PUBLIC "-//W3C//DTD SVG 1.1//EN" "http://www.w3.org/Graphics/SVG/1.1/DTD/svg11.dtd">
<svg version="1.1" id="Layer_1" xmlns="http://www.w3.org/2000/svg" xmlns:xlink="http://www.w3.org/1999/xlink" x="0px" y="0px"
	 width="500px" height="500px" viewBox="0 0 500 500" enable-background="new 0 0 500 500" xml:space="preserve">
<g>
	<path fill="#C1282D" d="M293.426,129.329c0,11.411-4.428,21.782-11.672,29.492c-0.627,0.673-1.281,1.327-1.954,1.955
		c-7.71,7.244-18.08,11.67-29.491,11.67c-11.412,0-21.783-4.427-29.492-11.67c-0.673-0.627-1.329-1.282-1.956-1.955
		c-7.243-7.709-11.669-18.081-11.669-29.492c0-23.812,19.305-43.117,43.117-43.117C274.12,86.212,293.426,105.518,293.426,129.329z"
		/>
	<path fill="#CE5358" d="M354.363,189.692c0,23.812-19.305,43.117-43.116,43.117c-11.413,0-21.784-4.427-29.493-11.671
		c-0.627-0.673-1.281-1.328-1.954-1.954c-7.71-7.244-18.08-11.669-29.491-11.669c-11.412,0-21.783,4.425-29.492,11.669
		c-0.673,0.627-1.329,1.281-1.956,1.954c-7.708,7.245-18.08,11.671-29.49,11.671c-23.812,0-43.117-19.305-43.117-43.117
		c0-23.813,19.305-43.117,43.117-43.117c11.411,0,21.782,4.426,29.49,11.67c0.627,0.673,1.283,1.329,1.956,1.955
		c7.709,7.244,18.08,11.671,29.492,11.671c11.411,0,21.781-4.427,29.491-11.671c0.673-0.626,1.328-1.282,1.954-1.955
		c7.709-7.244,18.08-11.67,29.493-11.67C335.059,146.576,354.363,165.88,354.363,189.692z"/>
	<path fill="#DB7D82" d="M293.426,250.055c0,23.812-19.306,43.118-43.117,43.118c-11.412,0-21.785-4.428-29.493-11.672
		c-0.626-0.672-1.282-1.328-1.955-1.953c-7.708-7.245-18.08-11.671-29.49-11.671c-11.413,0-21.783,4.426-29.493,11.671
		c-0.672,0.625-1.328,1.281-1.955,1.953c-7.709,7.244-18.08,11.672-29.491,11.672c-23.812,0-43.117-19.306-43.117-43.118
		c0-23.813,19.305-43.116,43.117-43.116c11.411,0,21.782,4.426,29.491,11.67c0.626,0.672,1.282,1.328,1.955,1.954
		c7.709,7.244,18.081,11.67,29.493,11.67c11.411,0,21.782-4.426,29.49-11.67c0.673-0.627,1.329-1.282,1.955-1.954
		c7.708-7.244,18.081-11.67,29.493-11.67C274.12,206.939,293.426,226.243,293.426,250.055z"/>
	<path fill="#DB7D82" d="M415.301,250.055c0,23.812-19.305,43.118-43.116,43.118c-11.413,0-21.782-4.428-29.492-11.672
		c-0.626-0.672-1.281-1.328-1.954-1.953c-7.709-7.245-18.08-11.671-29.491-11.671c-11.413,0-21.783,4.426-29.491,11.671
		c-0.674,0.625-1.329,1.281-1.956,1.953c-7.71,7.244-18.08,11.672-29.492,11.672c-23.811,0-43.117-19.306-43.117-43.118
		c0-23.813,19.305-43.116,43.117-43.116c11.412,0,21.782,4.426,29.492,11.67c0.627,0.672,1.282,1.328,1.956,1.954
		c7.708,7.244,18.078,11.67,29.491,11.67c11.411,0,21.782-4.426,29.491-11.67c0.673-0.627,1.328-1.282,1.954-1.954
		c7.71-7.244,18.079-11.67,29.492-11.67C395.996,206.939,415.301,226.243,415.301,250.055z"/>
	<path fill="#E6A9AB" d="M354.363,310.419c0,23.812-19.305,43.116-43.116,43.116c-11.413,0-21.784-4.427-29.493-11.671
		c-0.627-0.673-1.281-1.328-1.954-1.953c-7.71-7.244-18.08-11.671-29.491-11.671c-11.412,0-21.783,4.427-29.492,11.671
		c-0.673,0.626-1.329,1.28-1.956,1.953c-7.708,7.244-18.08,11.671-29.49,11.671c-23.812,0-43.117-19.305-43.117-43.116
		c0-23.813,19.305-43.117,43.117-43.117c11.411,0,21.782,4.427,29.49,11.671c0.627,0.672,1.283,1.328,1.956,1.953
		c7.709,7.244,18.08,11.671,29.492,11.671c11.411,0,21.781-4.427,29.491-11.671c0.673-0.626,1.328-1.281,1.954-1.953
		c7.709-7.244,18.08-11.671,29.493-11.671C335.059,267.302,354.363,286.606,354.363,310.419z"/>
	<path fill="#F3D4D5" d="M293.426,370.782c0,11.411-4.428,21.782-11.672,29.491c-0.627,0.673-1.281,1.328-1.954,1.955
		c-7.71,7.244-18.08,11.67-29.491,11.67c-11.412,0-21.783-4.426-29.492-11.67c-0.673-0.627-1.329-1.282-1.956-1.955
		c-7.243-7.709-11.669-18.08-11.669-29.491c0-23.813,19.305-43.117,43.117-43.117C274.12,327.665,293.426,346.97,293.426,370.782z"
		/>
	<circle fill="none" stroke="#FFFFFF" stroke-width="19" stroke-miterlimit="10" cx="250.532" cy="249.946" r="205.175"/>
	<circle fill="none" stroke="#FFFFFF" stroke-width="19" stroke-miterlimit="10" cx="250.532" cy="249.946" r="180.551"/>
	<circle fill="none" stroke="#FFFFFF" stroke-width="19" stroke-miterlimit="10" cx="250.532" cy="249.946" r="229.319"/>
</g>
</svg>
