<?xml version="1.0" encoding="iso-8859-1"?>
<!-- Generator: Adobe Illustrator 19.0.0, SVG Export Plug-In . SVG Version: 6.00 Build 0)  -->
<svg version="1.1" id="Layer_1" xmlns="http://www.w3.org/2000/svg" xmlns:xlink="http://www.w3.org/1999/xlink" x="0px" y="0px"
	 viewBox="0 0 512 512" style="enable-background:new 0 0 512 512;" xml:space="preserve">
<g>
	<g>
		<path d="M467.036,0c-4.329,0-7.837,3.509-7.837,7.837c0,47.262-17.036,93.133-47.967,129.165
			c-2.819,3.284-2.443,8.232,0.841,11.051c1.479,1.269,3.295,1.89,5.101,1.89c2.207,0,4.4-0.927,5.95-2.732
			c33.371-38.871,51.749-88.369,51.749-139.374C474.873,3.509,471.364,0,467.036,0z"/>
	</g>
</g>
<g>
	<g>
		<path d="M407.898,452.747c-17.13-4.729-18.429-6.028-23.158-23.155c-1.615-5.861-6.989-9.954-13.072-9.954
			c-6.081,0-11.456,4.093-13.071,9.951c-4.728,17.129-6.028,18.428-23.162,23.159c-5.859,1.62-9.948,6.995-9.948,13.071
			c0,6.075,4.091,11.45,9.952,13.071c17.132,4.73,18.431,6.029,23.158,23.156c1.615,5.861,6.99,9.955,13.072,9.955
			c6.08,0,11.456-4.094,13.071-9.951c4.731-17.132,6.03-18.431,23.162-23.161c5.856-1.62,9.947-6.993,9.947-13.07
			C417.848,459.742,413.757,454.367,407.898,452.747z M371.668,491.073c-4.875-14.789-10.466-20.379-25.256-25.255
			c14.789-4.875,20.381-10.466,25.256-25.253c4.878,14.788,10.469,20.378,25.255,25.253
			C382.135,470.694,376.547,476.281,371.668,491.073z"/>
	</g>
</g>
<g>
	<g>
		<path d="M124.059,331.662c-15.288-4.22-16.446-5.379-20.667-20.666c-1.557-5.645-6.734-9.587-12.591-9.587
			c-5.856,0-11.033,3.941-12.592,9.585c-4.22,15.288-5.379,16.447-20.669,20.668c-5.643,1.56-9.585,6.737-9.585,12.591
			s3.94,11.031,9.587,12.591c15.288,4.221,16.447,5.38,20.667,20.669c1.558,5.643,6.737,9.586,12.592,9.586
			c5.857,0,11.035-3.942,12.59-9.585c4.222-15.29,5.381-16.449,20.67-20.67c5.643-1.56,9.585-6.737,9.585-12.591
			C133.645,338.401,129.704,333.223,124.059,331.662z M90.799,365.246c-4.186-11.66-9.332-16.805-20.992-20.992
			c11.661-4.187,16.807-9.332,20.992-20.991c4.188,11.66,9.334,16.806,20.992,20.991C100.133,348.44,94.986,353.585,90.799,365.246z
			"/>
	</g>
</g>
<g>
	<g>
		<path d="M398.88,161.108c-2.788-3.313-7.731-3.742-11.041-0.956c-6.804,5.72-13.959,10.957-21.404,15.703
			c-5.924-7.108-14.89-11.647-24.909-11.647c-17.796,0-32.274,14.319-32.274,31.921c0,1.613,0.123,3.196,0.358,4.746
			c-7.905,2.132-15.949,3.795-24.091,4.975v-6.685c0-7.202-5.859-13.061-13.061-13.061h-32.916c-7.202,0-13.061,5.859-13.061,13.061
			v6.699c-8.199-1.181-16.242-2.843-24.095-4.96c0.237-1.558,0.363-3.151,0.363-4.773c0-17.601-14.477-31.921-32.273-31.921
			c-9.987,0-18.927,4.511-24.852,11.581C89.807,140.072,52.801,78.142,52.801,7.837C52.801,3.509,49.293,0,44.964,0
			c-4.329,0-7.837,3.509-7.837,7.837c0,76.522,40.604,143.857,101.673,182.192c-0.388,1.975-0.598,4.012-0.598,6.097
			c0,17.601,14.477,31.921,32.273,31.921c10.465,0,19.778-4.956,25.678-12.615c9.847,2.766,19.972,4.869,30.327,6.255v13.598
			c-47.866,13.006-83.173,56.835-83.173,108.762c0,62.14,50.554,112.694,112.694,112.694c21.576,0,42.547-6.118,60.645-17.693
			c3.646-2.332,4.711-7.178,2.379-10.824c-2.332-3.647-7.18-4.71-10.824-2.379c-2.725,1.743-5.531,3.333-8.398,4.786l-9-22.05
			l29.151-29.15l22.153,9.312c-3.88,7.467-8.729,14.468-14.519,20.792c-2.923,3.193-2.703,8.15,0.49,11.072
			c3.192,2.923,8.148,2.703,11.072-0.489c8.747-9.557,15.685-20.424,20.637-32.113c0.047-0.102,0.09-0.207,0.134-0.311
			c5.747-13.683,8.774-28.487,8.774-43.644c0-51.929-35.308-95.76-83.176-108.763v-13.62c10.264-1.38,20.39-3.477,30.306-6.257
			c5.899,7.674,15.223,12.64,25.7,12.64c17.795,0,32.272-14.319,32.272-31.921c0-2.062-0.206-4.076-0.585-6.03
			c8.614-5.381,16.88-11.364,24.712-17.948C401.238,169.364,401.665,164.421,398.88,161.108z M170.474,212.373
			c-9.153,0-16.599-7.288-16.599-16.247c0-8.959,7.446-16.247,16.599-16.247s16.599,7.288,16.599,16.247
			C187.073,205.085,179.627,212.373,170.474,212.373z M242.154,201.774h27.692v30.432c-4.538-0.559-9.157-0.851-13.844-0.851
			c-4.687,0-9.308,0.293-13.848,0.852V201.774z M212.209,257.489l9.967,24.422l-27.754,27.753l-24.516-10.305
			C179.277,281.376,194.117,266.679,212.209,257.489z M158.981,344.047c0-10.558,1.701-20.724,4.834-30.247l23.136,9.725
			l0.001,40.239l-23.449,9.57C160.569,364.089,158.981,354.251,158.981,344.047z M211.313,430.144
			c-17.983-9.373-32.68-24.212-41.87-42.304l22.023-8.988l29.153,29.153L211.313,430.144z M256.002,441.068
			c-10.558,0-20.725-1.701-30.247-4.834l9.016-21.451l41.637,0.001l8.883,21.765C275.883,439.523,266.022,441.068,256.002,441.068z
			 M353.022,344.047c0,10.388-1.663,20.58-4.832,30.25l-23.142-9.728v-5.124c0-4.328-3.508-7.837-7.837-7.837
			c-4.329,0-7.837,3.509-7.837,7.837v8.401l-31.266,31.265l-44.217-0.001l-31.265-31.265l-0.001-44.217l31.269-31.268l44.214,0.001
			l31.268,31.264v5.517c0,4.328,3.508,7.837,7.837,7.837c4.329,0,7.837-3.509,7.837-7.837v-4.812l23.453-9.572
			C351.435,324.004,353.022,333.844,353.022,344.047z M300.691,257.952c17.983,9.372,32.679,24.211,41.87,42.304l-24.426,9.968
			l-27.751-27.75L300.691,257.952z M286.249,251.861l-10.435,24.828l-38.84-0.001l-10.259-25.138
			c9.244-2.935,19.083-4.522,29.287-4.522C266.56,247.027,276.726,248.729,286.249,251.861z M341.526,212.373
			c-9.153,0-16.6-7.288-16.6-16.247c0-8.959,7.447-16.247,16.6-16.247c9.152,0,16.598,7.288,16.598,16.247
			C358.124,205.085,350.678,212.373,341.526,212.373z"/>
	</g>
</g>
<g>
</g>
<g>
</g>
<g>
</g>
<g>
</g>
<g>
</g>
<g>
</g>
<g>
</g>
<g>
</g>
<g>
</g>
<g>
</g>
<g>
</g>
<g>
</g>
<g>
</g>
<g>
</g>
<g>
</g>
</svg>
