<?xml version="1.0" encoding="iso-8859-1"?>
<!-- Generator: Adobe Illustrator 19.0.0, SVG Export Plug-In . SVG Version: 6.00 Build 0)  -->
<svg version="1.1" id="Capa_1" xmlns="http://www.w3.org/2000/svg" xmlns:xlink="http://www.w3.org/1999/xlink" x="0px" y="0px"
	 viewBox="0 0 512.001 512.001" style="enable-background:new 0 0 512.001 512.001;" xml:space="preserve">
<path style="fill:#F0F0FA;" d="M74.171,383.869c-85.512-85.512-85.512-224.154,0-309.666s224.154-85.512,309.666,0
	s85.512,224.154,0,309.666S159.683,469.381,74.171,383.869z"/>
<path style="fill:#78D2FA;" d="M312.382,297.229l-32.088-5.932c-12.837-2.374-22.153-13.569-22.153-26.624v-7.135h-57.812v7.136
	c0,13.054-9.316,24.25-22.152,26.623l-32.073,5.93c-31.127,5.755-53.715,32.902-53.715,64.557v38.379
	c79.837,63.895,194.009,63.769,273.708-0.382v-37.996C366.098,330.131,343.509,302.983,312.382,297.229z"/>
<path style="fill:#FFB487;" d="M229.384,302.48l29.944-29.944c-0.76-2.501-1.187-5.137-1.187-7.863v-7.135h-57.812v7.136
	c0,2.644-0.399,5.203-1.115,7.637L229.384,302.48z"/>
<path style="fill:#F5B955;" d="M229.004,75.124L229.004,75.124c-38.92,0-70.471,31.551-70.471,70.471v16.964h34.456
	c22.905,0,44.633-10.141,59.344-27.697l0,0l47.143,27.697v-16.964C299.475,106.675,267.924,75.124,229.004,75.124z"/>
<path style="fill:#FFCDAC;" d="M237.153,148.711c-12.838,8.918-28.213,13.848-44.164,13.848h-34.456v29.931
	c0,38.92,31.551,70.471,70.471,70.471l0,0c38.92,0,70.471-31.551,70.471-70.471v-29.931l-23.571-13.848l-23.571-13.848
	L237.153,148.711z"/>
<polygon style="fill:#F5B955;" points="252.551,387.076 229.38,299.014 206.216,387.076 229.389,413.437 "/>
<circle style="fill:#FF8C8C;" cx="412.807" cy="412.847" r="89.156"/>
<path d="M206.287,183.363c-1.86-1.86-4.439-2.93-7.069-2.93c-2.63,0-5.209,1.07-7.069,2.93c-1.86,1.87-2.93,4.439-2.93,7.079
	c0,2.63,1.07,5.199,2.93,7.059c1.86,1.87,4.439,2.93,7.069,2.93c2.63,0,5.209-1.06,7.069-2.93c1.86-1.85,2.93-4.429,2.93-7.059
	C209.217,187.802,208.147,185.222,206.287,183.363z"/>
<path d="M259.549,200.43c2.64,0,5.209-1.06,7.069-2.93c1.86-1.86,2.93-4.429,2.93-7.059c0-2.64-1.07-5.209-2.93-7.079
	c-1.86-1.86-4.439-2.93-7.069-2.93c-2.63,0-5.209,1.07-7.069,2.93c-1.86,1.86-2.93,4.439-2.93,7.079c0,2.63,1.07,5.199,2.93,7.059
	C254.34,199.37,256.919,200.43,259.549,200.43z"/>
<path d="M247.532,213.738c-3.904-3.904-10.235-3.904-14.141,0c-2.287,2.288-6.009,2.288-8.296,0c-3.904-3.904-10.235-3.904-14.141,0
	c-3.904,3.904-3.904,10.235,0,14.141c5.042,5.041,11.665,7.563,18.288,7.563c6.624,0,13.247-2.521,18.289-7.563
	C251.436,223.974,251.436,217.643,247.532,213.738z"/>
<path d="M357.63,469.602c-3.967-3.841-10.297-3.737-14.138,0.231c-3.84,3.968-3.736,10.298,0.232,14.138l0.335,0.324
	c1.94,1.869,4.438,2.798,6.936,2.798c2.622,0,5.239-1.025,7.202-3.063c3.831-3.977,3.712-10.306-0.265-14.138L357.63,469.602z"/>
<path d="M440.221,317.555c13.391-32.014,19.382-66.984,17.361-101.841c-2.258-38.965-14.486-76.869-35.363-109.615
	c-2.969-4.656-9.15-6.024-13.806-3.056s-6.024,9.15-3.056,13.806c37.386,58.641,42.813,133.62,14.63,197.111
	c-2.372-0.171-4.765-0.262-7.18-0.262c-16.662,0-32.373,4.137-46.172,11.429c-10.874-19.72-29.895-33.563-52.438-37.73
	l-32.088-5.933c-8.096-1.497-13.972-8.559-13.972-16.791v-1.595c24.801-13.741,41.636-40.18,41.636-70.485v-46.937
	c0-44.405-36.126-80.531-80.531-80.531s-80.531,36.127-80.531,80.531v46.937c0,30.298,16.826,56.731,41.618,70.475v1.605
	c0,8.233-5.876,15.296-13.971,16.792l-32.073,5.93c-35.865,6.632-61.895,37.917-61.895,74.389v16.143
	c-0.383-0.377-0.77-0.748-1.151-1.128c-39.469-39.469-61.205-91.945-61.205-147.762S41.773,120.741,81.242,81.273
	c67.368-67.368,171.682-80.708,253.67-32.441c4.758,2.802,10.887,1.214,13.689-3.543c2.802-4.758,1.215-10.887-3.543-13.689
	C255.212-21.292,140.913-6.679,67.101,67.133C23.856,110.378,0.039,167.878,0.039,229.036S23.855,347.694,67.1,390.94
	c43.9,43.899,102.635,67.05,162.16,67.05c29.809,0,59.816-5.824,88.255-17.74c0.673,2.342,1.413,4.667,2.261,6.962
	c1.914,5.179,7.663,7.83,12.844,5.913c5.18-1.913,7.828-7.664,5.914-12.844c-3.238-8.764-4.879-17.991-4.879-27.43
	c0-43.646,35.509-79.155,79.155-79.155c43.645,0,79.155,35.509,79.155,79.155c0,43.645-35.509,79.154-79.155,79.154
	c-7.936,0-15.765-1.168-23.269-3.472c-5.278-1.619-10.871,1.346-12.492,6.624c-1.621,5.278,1.345,10.871,6.624,12.492
	c9.409,2.889,19.211,4.353,29.139,4.353c54.673,0,99.152-44.478,99.152-99.151C511.961,367.683,481.603,329.477,440.221,317.555z
	 M229.382,338.313l12.146,46.162l-12.141,13.817l-12.147-13.819L229.382,338.313z M229.385,288.339l-17.006-17.006
	c5.442,1.165,11.081,1.791,16.866,1.791c5.914,0,11.675-0.659,17.23-1.875L229.385,288.339z M168.71,145.656
	c0-33.379,27.156-60.534,60.534-60.534c33.213,0,60.265,26.89,60.532,60.042l-32.118-18.87c-4.211-2.474-9.592-1.544-12.728,2.199
	c-12.858,15.344-31.713,24.143-51.732,24.143H168.71v-3.861L168.71,145.656L168.71,145.656z M168.71,192.593v-19.959h24.487
	c23.086,0,44.977-9.027,61.264-25.024l35.317,20.748v24.236c0,33.378-27.156,60.534-60.534,60.534
	C195.866,253.127,168.71,225.972,168.71,192.593z M313.658,412.849c0,2.403,0.108,4.792,0.278,7.172
	c-70.082,31.163-151.365,21.075-211.547-24.75v-33.487c0-26.831,19.15-49.846,45.534-54.726l32.073-5.93
	c8.639-1.597,16.109-6.118,21.477-12.421l16.057,16.057l-20.982,79.769c-0.847,3.219-0.037,6.645,2.16,9.145l23.172,26.361
	c1.899,2.16,4.635,3.396,7.511,3.396s5.612-1.239,7.51-3.398l23.163-26.361c2.196-2.499,3.005-5.927,2.159-9.145l-20.988-79.761
	l15.904-15.904c5.358,6.219,12.773,10.677,21.34,12.26l32.088,5.933c17.128,3.167,31.471,13.942,39.325,29.216
	C327.781,354.476,313.658,382.044,313.658,412.849z"/>
<path d="M402.811,422.848v25.162c0,5.521,4.476,9.998,9.998,9.998c5.522,0,9.998-4.477,9.998-9.998v-25.162h25.163
	c5.522,0,9.998-4.477,9.998-9.998c0-5.521-4.476-9.998-9.998-9.998h-25.163v-25.163c0-5.521-4.476-9.998-9.998-9.998
	c-5.522,0-9.998,4.477-9.998,9.998v25.163h-25.163c-5.522,0-9.998,4.477-9.998,9.998c0,5.521,4.476,9.998,9.998,9.998H402.811z"/>
<path d="M377.129,81.637c1.954,1.961,4.518,2.943,7.084,2.943c2.553,0,5.105-0.971,7.056-2.915
	c3.912-3.897,3.924-10.227,0.028-14.14l-0.39-0.391c-3.904-3.904-10.236-3.904-14.14,0c-3.904,3.904-3.904,10.235,0,14.14
	L377.129,81.637z"/>
<g>
</g>
<g>
</g>
<g>
</g>
<g>
</g>
<g>
</g>
<g>
</g>
<g>
</g>
<g>
</g>
<g>
</g>
<g>
</g>
<g>
</g>
<g>
</g>
<g>
</g>
<g>
</g>
<g>
</g>
</svg>
