<svg height="512pt" viewBox="-58 0 512 512.00003" width="512pt" xmlns="http://www.w3.org/2000/svg"><path d="m187.730469 409.601562c84.832031 0 153.601562-68.769531 153.601562-153.601562s-68.769531-153.601562-153.601562-153.601562c-84.828125 0-153.597657 68.769531-153.597657 153.601562.097657 84.789062 68.808594 153.5 153.597657 153.601562zm0-290.136718c75.40625 0 136.535156 61.128906 136.535156 136.535156s-61.128906 136.535156-136.535156 136.535156c-75.402344 0-136.53125-61.128906-136.53125-136.535156.089843-75.367188 61.164062-136.445312 136.53125-136.535156zm0 0"/><path d="m187.730469 349.867188c17.503906.003906 34.65625-4.914063 49.496093-14.191407 15.011719 10.03125 35.246094 6.582031 46.089844-7.851562 10.84375-14.4375 8.519532-34.828125-5.292968-46.453125 8.429687-29.730469 1.601562-61.703125-18.234376-85.394532l10.742188-10.742187c3.234375-3.347656 3.1875-8.671875-.105469-11.964844-3.289062-3.289062-8.613281-3.335937-11.960937-.101562l-10.742188 10.742187c-31.835937-26.546875-77.316406-29.070312-111.894531-6.207031-34.574219 22.867187-50.058594 65.703125-38.09375 105.390625s48.546875 66.828125 89.996094 66.773438zm68.269531-25.601563c-9.425781 0-17.066406-7.640625-17.066406-17.066406s7.640625-17.066407 17.066406-17.066407 17.066406 7.640626 17.066406 17.066407-7.640625 17.066406-17.066406 17.066406zm-68.269531-145.066406c17.417969-.007813 34.3125 5.941406 47.882812 16.855469l-49.203125 49.203124-36.949218-22.1875c-2.617188-1.636718-5.910157-1.734374-8.617188-.253906-2.710938 1.476563-4.40625 4.304688-4.441406 7.390625-.035156 3.082031 1.597656 5.949219 4.269531 7.488281l38.527344 23.132813v37.839844c0 4.710937 3.820312 8.53125 8.53125 8.53125 4.714843 0 8.535156-3.820313 8.535156-8.53125v-39.136719l51.414063-51.410156c14.824218 18.390625 20.269531 42.625 14.738281 65.59375-12.792969-2.582032-25.925781 2.414062-33.773438 12.839844-7.84375 10.425781-9.003906 24.429687-2.980469 36.003906-11.53125 6.675781-24.609374 10.207031-37.933593 10.242187-42.414063 0-76.796875-34.386719-76.796875-76.800781s34.382812-76.800781 76.796875-76.800781zm0 0"/><path d="m385.175781 295.046875-12.167969-8.871094c3.601563-21.972656 3.242188-44.410156-1.058593-66.253906l10.164062-6.539063c9.808594-6.308593 14.113281-18.445312 10.46875-29.523437l-2.40625-7.320313c-3.652343-11.117187-14.382812-18.34375-26.058593-17.546874l-15.121094 1.023437c-5.683594-9.488281-12.1875-18.457031-19.441406-26.808594l-15.296876-33.09375c-10.710937-23.175781-19.617187-47.136719-26.644531-71.679687l-2.804687-9.824219c-3.160156-10.984375-13.191406-18.5664062-24.621094-18.609375h-144.910156c-11.417969.0390625-21.445313 7.601562-24.621094 18.570312l-2.765625 9.820313c-7.023437 24.542969-15.929687 48.507813-26.640625 71.679687l-15.339844 33.136719c-61.214844 70.417969-61.214844 175.167969 0 245.585938l15.296875 33.09375c10.726563 23.1875 19.648438 47.164062 26.683594 71.722656l2.808594 9.820313c3.171875 10.953124 13.175781 18.511718 24.578125 18.570312h144.910156c11.417969-.039062 21.445312-7.601562 24.621094-18.570312l2.804687-9.820313c7.027344-24.554687 15.933594-48.535156 26.644531-71.722656l15.296876-33.09375c8.578124-9.878907 16.105468-20.621094 22.460937-32.058594l12.015625 1.527344c1.082031.136719 2.167969.203125 3.257812.207031 10.5-.019531 19.925782-6.445312 23.777344-16.214844l2.824219-7.132812c4.277344-10.839844.695313-23.199219-8.714844-30.074219zm-19.898437-119.03125c3.890625-.265625 7.46875 2.140625 8.6875 5.847656l2.398437 7.320313c1.21875 3.691406-.214843 7.742187-3.484375 9.847656l-5.246094 3.371094c-2.644531-8.855469-5.945312-17.503906-9.875-25.875zm-261.019532-142.933594 2.808594-9.820312c1.046875-3.667969 4.394532-6.195313 8.210938-6.195313h144.910156c3.816406 0 7.164062 2.527344 8.210938 6.195313l2.808593 9.820312c6.910157 24.109375 15.582031 47.675781 25.941407 70.511719-65.339844-47.101562-153.492188-47.101562-218.832032 0 10.359375-22.835938 19.03125-46.402344 25.941406-70.511719zm83.472657 52.25c94.257812 0 170.667969 76.410157 170.667969 170.667969s-76.410157 170.667969-170.667969 170.667969c-94.253907 0-170.664063-76.410157-170.664063-170.667969.105469-94.210938 76.453125-170.558594 170.664063-170.667969zm83.476562 393.585938-2.808593 9.820312c-1.046876 3.667969-4.394532 6.195313-8.210938 6.195313h-144.910156c-3.816406 0-7.164063-2.527344-8.210938-6.195313l-2.808594-9.820312c-6.910156-24.109375-15.582031-47.675781-25.941406-70.511719 65.339844 47.101562 153.492188 47.101562 218.832032 0-10.359376 22.835938-19.03125 46.402344-25.941407 70.511719zm106.820313-160.042969-2.828125 7.132812c-1.40625 3.648438-5.132813 5.851563-9.007813 5.324219l-6.195312-.792969c3.675781-8.460937 6.71875-17.183593 9.105468-26.09375l6.015626 4.382813c3.144531 2.292969 4.34375 6.425781 2.910156 10.046875zm0 0"/></svg>