<svg height="512pt" viewBox="-34 0 512 512.00017" width="512pt" xmlns="http://www.w3.org/2000/svg"><path d="m207.269531 181.675781c-3.296875 3.363281-3.296875 8.75 0 12.117188.816407.769531 1.773438 1.378906 2.816407 1.792969 1.015624.476562 2.125.710937 3.242187.679687 3.851563-.019531 7.210937-2.621094 8.199219-6.34375.988281-3.722656-.640625-7.644531-3.972656-9.574219-3.335938-1.929687-7.546876-1.386718-10.285157 1.328125zm0 0"/><path d="m255.996094 76.800781h44.175781c13.101563 15.359375 37.789063 25.597657 66.757813 25.597657 43.066406 0 76.800781-22.492188 76.800781-51.199219s-33.734375-51.199219-76.800781-51.199219c-29.011719 0-53.65625 10.238281-66.757813 25.601562h-44.175781c0-9.425781-7.640625-17.066406-17.066406-17.066406h-51.199219c-9.425781 0-17.066407 7.640625-17.066407 17.066406v51.199219c.015626 6.070313 3.269532 11.667969 8.53125 14.695313v19.4375c-14.136718 0-25.597656 11.460937-25.597656 25.601562v18.984375c-49.417968 17.601563-88.691406 55.902344-107.519531 104.867188-.402344.738281-.691406 1.53125-.855469 2.355469-26.929687 72.652343-3.816406 154.378906 57.175782 202.171874v21.484376c0 14.140624 11.460937 25.601562 25.597656 25.601562h170.667968c14.136719 0 25.597657-11.460938 25.597657-25.601562v-21.484376c60.992187-47.785156 84.105469-129.511718 57.175781-202.164062-.164062-.828125-.449219-1.625-.855469-2.363281-18.832031-48.960938-58.101562-87.261719-107.519531-104.867188v-18.984375c0-14.140625-11.460938-25.601562-25.597656-25.601562v-19.4375c5.261718-3.027344 8.511718-8.625 8.53125-14.695313zm110.933594-59.734375c32.375 0 59.734374 15.632813 59.734374 34.132813s-27.359374 34.132812-59.734374 34.132812-59.734376-15.632812-59.734376-34.132812 27.359376-34.132813 59.734376-34.132813zm-75.691407 25.601563c-.707031 2.789062-1.082031 5.652343-1.109375 8.53125.027344 2.878906.402344 5.746093 1.109375 8.535156h-35.242187v-17.066406zm-103.507812-17.066407h51.199219v51.199219h-51.199219zm119.464843 460.796876c0 4.714843-3.820312 8.535156-8.53125 8.535156h-170.667968c-4.710938 0-8.53125-3.820313-8.53125-8.535156v-17.066407h187.730468zm5.648438-34.132813h-199.03125c-54.351562-42.117187-76.101562-114.015625-54.203125-179.199219h271.027344c7.058593 16.148438 10.699219 33.578125 10.691406 51.199219.253906 36.785156-15.566406 71.84375-43.3125 95.992187-2.445313 1.96875-3.609375 5.117188-3.039063 8.203126.574219 3.085937 2.792969 5.605468 5.78125 6.566406 2.984376.960937 6.257813.203125 8.519532-1.96875 31.457031-27.363282 49.398437-67.101563 49.121094-108.792969-.011719-17.492187-3.191407-34.839844-9.386719-51.199219h18.082031c21.898438 65.183594.148438 137.082032-54.207031 179.199219zm47.335938-196.265625h-18.851563c-19.105469-35.863281-52.386719-62.058594-91.730469-72.207031-4.566406-1.179688-9.222656 1.566406-10.398437 6.128906-1.179688 4.566406 1.566406 9.21875 6.128906 10.398437 31.582031 8.152344 58.847656 28.074219 76.214844 55.679688h-255.0625c26.472656-57.234375 83.789062-93.871094 146.847656-93.871094 63.0625 0 120.375 36.636719 146.851563 93.871094zm-104.183594-119.464844v13.882813c-27.996094-7.132813-57.335938-7.132813-85.332032 0v-13.882813c0-4.714844 3.820313-8.535156 8.53125-8.535156h68.269532c4.710937 0 8.53125 3.820312 8.53125 8.535156zm-59.734375-25.601562v-17.066406h34.136719v17.066406zm0 0"/><path d="m29.863281 17.066406c2.769531-.003906 5.46875.894532 7.679688 2.558594 2.4375 1.832031 5.667969 2.21875 8.472656 1.023438 2.804687-1.199219 4.753906-3.800782 5.121094-6.828126.363281-3.027343-.914063-6.019531-3.351563-7.847656-5.164062-3.894531-11.457031-5.9921872-17.921875-5.972656-14.765625-.0390625-27.332031 10.746094-29.527343 25.347656-2.199219 14.601563 6.632812 28.609375 20.753906 32.917969 1.328125.917969 2.894531 1.425781 4.507812 1.46875h110.933594c4.710938 0 8.53125-3.820313 8.53125-8.535156 0-4.710938-3.820312-8.53125-8.53125-8.53125h-106.667969c-7.070312 0-12.800781-5.730469-12.800781-12.800781 0-7.070313 5.730469-12.800782 12.800781-12.800782zm0 0"/></svg>