<?xml version="1.0" encoding="utf-8"?>
<!-- Generator: Adobe Illustrator 16.0.0, SVG Export Plug-In . SVG Version: 6.00 Build 0)  -->
<!DOCTYPE svg PUBLIC "-//W3C//DTD SVG 1.1//EN" "http://www.w3.org/Graphics/SVG/1.1/DTD/svg11.dtd">
<svg version="1.1" id="Capa_1" xmlns="http://www.w3.org/2000/svg" xmlns:xlink="http://www.w3.org/1999/xlink" x="0px" y="0px"
	 width="215px" height="100px" viewBox="0 0 215 100" enable-background="new 0 0 215 100" xml:space="preserve">
<path fill="#ED8A19" d="M110.008,85.328c-0.785-0.412-1.646-0.618-2.507-0.618s-1.722,0.206-2.506,0.618L82.438,97.186
	c-3.951,2.078-8.569-1.278-7.814-5.678l4.308-25.119c0.3-1.745-0.28-3.529-1.548-4.766l-18.25-17.789
	c-3.196-3.116-1.433-8.544,2.985-9.185l25.221-3.665c1.754-0.254,3.271-1.355,4.055-2.945l11.279-22.854
	c0.987-2.001,2.907-3.002,4.827-3.002c0.96,0,1.92,0.25,2.764,0.75"/>
</svg>
