<?xml version="1.0" encoding="iso-8859-1"?>
<!-- Generator: Adobe Illustrator 21.0.0, SVG Export Plug-In . SVG Version: 6.00 Build 0)  -->
<svg version="1.1" id="Capa_1" xmlns="http://www.w3.org/2000/svg" xmlns:xlink="http://www.w3.org/1999/xlink" x="0px" y="0px"
	 viewBox="0 0 512.001 512.001" style="enable-background:new 0 0 512.001 512.001;" xml:space="preserve">
<path style="fill:#FF765A;" d="M457.501,24.879H54.499C24.448,24.879,0,49.327,0,79.377v239.647
	c0,30.05,24.448,54.498,54.499,54.498h56.213v98.188c0,6.258,3.784,11.894,9.576,14.265c1.89,0.773,3.87,1.149,5.833,1.148
	c4.057,0,8.04-1.602,10.996-4.608l107.118-108.991h213.267c30.051,0,54.499-24.448,54.499-54.498V79.377
	C512,49.327,487.552,24.879,457.501,24.879z"/>
<path style="fill:#FFFFFF;" d="M342.332,225.897c-7.641-10.864-17.117-20.075-27.985-27.289
	c9.979-12.791,15.577-28.674,15.577-45.412c0-40.761-33.162-73.923-73.924-73.923s-73.924,33.161-73.924,73.923
	c0,16.738,5.597,32.621,15.577,45.412c-10.868,7.214-20.344,16.424-27.985,27.289c-12.526,17.811-19.148,38.77-19.148,60.613v17.207
	c0,8.512,6.901,15.412,15.412,15.412h180.135c8.512,0,15.412-6.901,15.412-15.412v-17.207
	C361.48,264.667,354.858,243.708,342.332,225.897z"/>
<path style="fill:#FF3F83;" d="M457.501,24.879H255.999v348.643h201.502c30.051,0,54.499-24.448,54.499-54.498V79.377
	C512,49.327,487.552,24.879,457.501,24.879z"/>
<path style="fill:#E3FBFF;" d="M346.068,319.129c8.512,0,15.412-6.901,15.412-15.412v-17.207c0-21.842-6.621-42.801-19.148-60.613
	c-7.641-10.864-17.117-20.075-27.985-27.289c9.979-12.791,15.577-28.674,15.577-45.412c0-40.761-33.162-73.923-73.924-73.923
	v239.856L346.068,319.129L346.068,319.129z"/>
<g>
</g>
<g>
</g>
<g>
</g>
<g>
</g>
<g>
</g>
<g>
</g>
<g>
</g>
<g>
</g>
<g>
</g>
<g>
</g>
<g>
</g>
<g>
</g>
<g>
</g>
<g>
</g>
<g>
</g>
</svg>
