<?xml version="1.0" encoding="iso-8859-1"?>
<!-- Generator: Adobe Illustrator 19.0.0, SVG Export Plug-In . SVG Version: 6.00 Build 0)  -->
<svg version="1.1" id="Capa_1" xmlns="http://www.w3.org/2000/svg" xmlns:xlink="http://www.w3.org/1999/xlink" x="0px" y="0px"
	 viewBox="0 0 470 470" style="enable-background:new 0 0 470 470;" xml:space="preserve">
<g>
	<path d="M37.5,218.568h-30c-4.143,0-7.5-3.358-7.5-7.5s3.357-7.5,7.5-7.5h30c4.143,0,7.5,3.358,7.5,7.5
		S41.643,218.568,37.5,218.568z"/>
	<path d="M452.5,345.925H302.044c-32.657,0-74.045-18.044-96.271-41.972l-51.778-55.745v90.217c0,4.142-3.357,7.5-7.5,7.5H18.734
		c-3.887,0-7.13-2.969-7.471-6.841L0.029,211.727C0.01,211.508,0,211.288,0,211.068v-30c0-1.989,0.79-3.897,2.196-5.303
		c1.407-1.407,3.314-2.197,5.304-2.197l97.608,0c22.596,0,53.487,13.469,68.863,30.024l64.772,69.734
		c13.896,14.959,42.884,27.598,63.3,27.598H462.5c2.411,0,4.675,1.159,6.084,3.115c1.41,1.956,1.794,4.47,1.031,6.757l-10,30
		C458.595,343.859,455.729,345.925,452.5,345.925z M152.004,224.023l64.76,69.721c19.688,21.196,56.352,37.181,85.28,37.181h145.051
		l5-15H302.044c-24.787,0-57.42-14.227-74.29-32.389l-64.772-69.734c-12.484-13.441-39.527-25.232-57.873-25.232l-90.108,0v22.169
		l10.602,120.187h113.394V232.31c-8.046-6.881-24.57-13.741-33.887-13.741L67.5,218.568c-4.143,0-7.5-3.358-7.5-7.5
		s3.358-7.5,7.5-7.5l37.608,0.001C119.442,203.569,142.212,213.493,152.004,224.023z"/>
	<path d="M146.495,315.925H16.088c-4.143,0-7.5-3.358-7.5-7.5s3.357-7.5,7.5-7.5h130.407c4.143,0,7.5,3.358,7.5,7.5
		S150.638,315.925,146.495,315.925z"/>
	<path d="M409.43,315.925c-4.143,0-7.5-3.358-7.5-7.5v-71.102l-67.044-24.021c-31.637-11.334-63.054-37.237-85.445-70.13l-75.838,71
		c-3.024,2.831-7.771,2.673-10.601-0.349c-2.831-3.024-2.675-7.77,0.349-10.601l82.377-77.122c1.642-1.537,3.884-2.256,6.116-1.959
		c2.229,0.297,4.207,1.579,5.39,3.492c20.834,33.71,51.754,60.458,82.711,71.549l72.015,25.801c2.981,1.068,4.971,3.894,4.971,7.061
		v76.382C416.93,312.567,413.572,315.925,409.43,315.925z"/>
</g>
<g>
</g>
<g>
</g>
<g>
</g>
<g>
</g>
<g>
</g>
<g>
</g>
<g>
</g>
<g>
</g>
<g>
</g>
<g>
</g>
<g>
</g>
<g>
</g>
<g>
</g>
<g>
</g>
<g>
</g>
</svg>
