<svg height="512pt" viewBox="0 0 512 512" width="512pt" xmlns="http://www.w3.org/2000/svg"><path d="m512 0v448c0 35.34375-28.65625 64-64 64h-384c-35.34375 0-64-28.65625-64-64v-448zm0 0" fill="#fdd835"/><path d="m512 0v183.359375c-16.960938 15.359375-39.359375 24.640625-64 24.640625-16.960938 0-33.441406-4.640625-48-13.121094-14.558594 8.480469-31.039062 13.121094-48 13.121094s-33.441406-4.640625-48-13.121094c-14.558594 8.480469-31.039062 13.121094-48 13.121094s-33.441406-4.640625-48-13.121094c-14.558594 8.480469-31.039062 13.121094-48 13.121094s-33.441406-4.640625-48-13.121094c-14.558594 8.480469-31.039062 13.121094-48 13.121094-24.640625 0-47.039062-9.28125-64-24.640625v-183.359375zm0 0" fill="#fbc02d"/><path d="m256 240h192v160h-192zm0 0" fill="#45d4db"/><path d="m256 240h96v160h-96zm0 0" fill="#4adeed"/><path d="m288 304h32v32h-32zm0 0" fill="#fff"/><path d="m384 304h32v32h-32zm0 0" fill="#fff"/><path d="m0 17.007812v94.992188c0 35.296875 28.703125 64 64 64 19.199219 0 36.257812-8.671875 48-22.113281 11.742188 13.441406 28.800781 22.113281 48 22.113281s36.257812-8.671875 48-22.113281c11.742188 13.441406 28.800781 22.113281 48 22.113281s36.257812-8.671875 48-22.113281c11.742188 13.441406 28.800781 22.113281 48 22.113281s36.257812-8.671875 48-22.113281c11.742188 13.441406 28.800781 22.113281 48 22.113281 35.296875 0 64-28.703125 64-64v-94.992188zm0 0" fill="#e76e54"/><path d="m304 17.007812v136.878907c11.742188 13.441406 28.800781 22.113281 48 22.113281s36.257812-8.671875 48-22.113281v-136.878907zm0 0" fill="#fff"/><path d="m112 17.007812v136.878907c11.742188 13.441406 28.800781 22.113281 48 22.113281s36.257812-8.671875 48-22.113281v-136.878907zm0 0" fill="#fff"/><path d="m0 17.007812h512v48h-512zm0 0" fill="#dd523c"/><path d="m112 17.007812h96v48h-96zm0 0" fill="#efefef"/><path d="m304 17.007812h96v48h-96zm0 0" fill="#efefef"/><path d="m0 1.007812h512v32h-512zm0 0" fill="#77959e"/><path d="m224 512h-160v-192c0-44.113281 35.886719-80 80-80s80 35.886719 80 80zm0 0" fill="#c59969"/><path d="m144 240c-44.113281 0-80 35.886719-80 80v32c0-44.113281 35.886719-80 80-80s80 35.886719 80 80v-32c0-44.113281-35.886719-80-80-80zm0 0" fill="#ba8a5a"/></svg>