<svg height="512pt" viewBox="0 0 512 512" width="512pt" xmlns="http://www.w3.org/2000/svg"><path d="m512 32v424.640625l-64 42.558594-48-32-48.160156 32-48-32-48 32-48-32-48 32-48-32-47.839844 32-64-42.71875v-424.480469c0-17.679688 14.320312-32 32-32h448c17.679688 0 32 14.320312 32 32zm0 0" fill="#fdd835"/><path d="m512 304c0-61.761719-50.238281-112-112-112s-112 50.238281-112 112v28.160156l-32 32v101.34375l-.160156.113282-47.9375-32-47.980469 32-48-32-47.96875 32-63.953125-42.671876v-422.945312 456.558594l63.953125 42.671875 47.96875-32 48 32 47.980469-32 47.9375 32 48-32 47.984375 31.984375 48.175781-32 48 32.015625 64-42.589844zm0 0" fill="#fbc02d"/><path d="m400 512c-35.296875 0-64-28.703125-64-64v-32h128v32c0 35.296875-28.703125 64-64 64zm0 0" fill="#77959e"/><path d="m336 448c0 11.710938 3.390625 22.542969 8.894531 32h110.195313c5.519531-9.457031 8.910156-20.289062 8.910156-32v-32h-128zm0 0" fill="#62808c"/><path d="m512 448h-224v-70.625l32-32v-41.375c0-44.113281 35.886719-80 80-80s80 35.886719 80 80v41.375l32 32zm0 0" fill="#40a2e7"/><g fill="#57565c"><path d="m160 272h48v-32h-32v-32h-32v34.945312c-18.574219 6.621094-32 24.222657-32 45.054688 0 26.464844 21.535156 48 48 48 8.816406 0 16 7.183594 16 16s-7.183594 16-16 16h-48v32h32v32h32v-34.945312c18.574219-6.621094 32-24.222657 32-45.054688 0-26.464844-21.535156-48-48-48-8.816406 0-16-7.183594-16-16s7.183594-16 16-16zm0 0"/><path d="m64 80h256v32h-256zm0 0"/><path d="m352 80h96v32h-96zm0 0"/><path d="m64 144h256v32h-256zm0 0"/><path d="m352 144h96v32h-96zm0 0"/></g><path d="m352 368h32v32h-32zm0 0" fill="#fff"/><path d="m416 368h32v32h-32zm0 0" fill="#fff"/></svg>