<svg height="512pt" viewBox="0 -32 512 512" width="512pt" xmlns="http://www.w3.org/2000/svg"><path d="m176 352h160v80h-160zm0 0" fill="#bfc9d1"/><path d="m352 448h-192c-8.832031 0-16-7.167969-16-16s7.167969-16 16-16h192c8.832031 0 16 7.167969 16 16s-7.167969 16-16 16zm0 0" fill="#b0b4b9"/><path d="m480 384h-448c-17.679688 0-32-14.320312-32-32v-320c0-17.679688 14.320312-32 32-32h448c17.679688 0 32 14.320312 32 32v320c0 17.679688-14.320312 32-32 32zm0 0" fill="#d7dee2"/><path d="m32 32h448v272h-448zm0 0" fill="#4adeed"/><path d="m256 272h-160c-17.679688 0-32-14.320312-32-32v-128c0-17.679688 14.320312-32 32-32h160c17.679688 0 32 14.320312 32 32v128c0 17.679688-14.320312 32-32 32zm0 0" fill="#c59969"/><path d="m128 80h96v96h-96zm0 0" fill="#ba8a5a"/><path d="m144 80h64v80h-64zm0 0" fill="#fdd835"/><g fill="#fff"><path d="m320 96h128v32h-128zm0 0"/><path d="m448 192h-32v-32h32zm-64 0h-64v-32h64zm0 0"/><path d="m320 224h64v32h-64zm0 0"/></g><path d="m32 32h448v32h-448zm0 0" fill="#45d4db"/><path d="m256 240h-160c-17.679688 0-32-14.320312-32-32v32c0 17.679688 14.320312 32 32 32h160c17.679688 0 32-14.320312 32-32v-32c0 17.679688-14.320312 32-32 32zm0 0" fill="#ba8a5a"/></svg>