<?xml version="1.0" encoding="utf-8"?>
<!-- Generator: Adobe Illustrator 16.0.0, SVG Export Plug-In . SVG Version: 6.00 Build 0)  -->
<!DOCTYPE svg PUBLIC "-//W3C//DTD SVG 1.1//EN" "http://www.w3.org/Graphics/SVG/1.1/DTD/svg11.dtd">
<svg version="1.1" id="Layer_2" xmlns="http://www.w3.org/2000/svg" xmlns:xlink="http://www.w3.org/1999/xlink" x="0px" y="0px"
	 width="215px" height="100px" viewBox="0 0 215 100" enable-background="new 0 0 215 100" xml:space="preserve">
<g>
	<g>
		<rect x="100.026" y="74.287" fill="#A05F25" width="14.949" height="16.742"/>
		<path fill="#773E1E" d="M100.026,76.262c0,0,6.288,4.004,14.949,3.074v-5.049h-14.949V76.262z"/>
		<ellipse fill="#773E1E" cx="78.472" cy="48.328" rx="7.293" ry="8.321"/>
		<ellipse fill="#773E1E" cx="136.528" cy="48.328" rx="7.293" ry="8.321"/>
		<path fill="#A05F25" d="M136.499,32.434c0-12.257-8.969-21.225-28.998-21.225c-20.03,0-28.999,8.969-28.999,21.225
			c0,12.257-2.092,44.544,28.999,44.544C138.593,76.979,136.499,44.692,136.499,32.434z"/>
		<g>
			<g>
				<ellipse fill="#3B2519" cx="93.376" cy="46.336" rx="3.139" ry="3.438"/>
				<circle fill="#FFFFFF" cx="92.007" cy="44.818" r="0.939"/>
			</g>
			<path fill="#86461B" d="M88.354,37.816c1.484,0.742,3.868-2.522,9.324,0.318c0.995,0.518,1.588-4.428-4.26-4.428
				C88.354,33.705,87.458,37.368,88.354,37.816z"/>
			<g>
				<ellipse fill="#3B2519" cx="122.013" cy="46.336" rx="3.139" ry="3.438"/>
				<circle fill="#FFFFFF" cx="120.646" cy="44.818" r="0.939"/>
			</g>
			<path fill="#86461B" d="M126.647,37.816c-1.484,0.742-3.867-2.522-9.324,0.318c-0.994,0.518-1.588-4.428,4.26-4.428
				C126.647,33.705,127.544,37.368,126.647,37.816z"/>
		</g>
		<path fill="#6D370F" d="M107.501,58.43c-3.102,0-4.97-2.318-4.97-1.197s0.897,3.252,4.97,3.252c4.072,0,4.971-2.131,4.971-3.252
			C112.472,56.113,110.603,58.43,107.501,58.43z"/>
		<path fill="#6D370F" d="M107.501,68.738c-1.072,0-1.72-0.803-1.72-0.414s0.312,1.125,1.72,1.125s1.719-0.736,1.719-1.125
			S108.573,68.738,107.501,68.738z"/>
		<path fill="#6D2B0A" d="M107.501,65.881c-4.917,0-7.877-2.004-7.877-1.494c0,0.506,1.421,2.504,7.877,2.504
			c6.457,0,7.879-1.998,7.879-2.504C115.378,63.877,112.417,65.881,107.501,65.881z"/>
	</g>
	<path fill="#D58E64" d="M107.501,81.016V99.85H71.178C71.178,92.227,90.311,81.016,107.501,81.016z"/>
	<path fill="#D58E64" d="M107.501,81.016V99.85h36.322C143.823,92.227,124.69,81.016,107.501,81.016z"/>
	<path fill="#BF805A" d="M107.501,81.016c-3.656,0-7.399,0.51-11.029,1.383c0.024,0.033,4.026,5.193,11.029,5.193
		c6.486,0,10.797-4.42,11.422-5.102C115.171,81.561,111.288,81.016,107.501,81.016z"/>
	<path fill="#A05F25" d="M100.026,81.666c0,0,2.187,2.711,7.475,2.711c5.287,0,7.476-2.711,7.476-2.711
		S107.22,78.844,100.026,81.666z"/>
	<path fill="#86461B" d="M107.501,70.59v6.949c-15.621,0-20.776-8.33-22.305-10.648c-1.132-1.725,7.349,6.053,14.83,6.053
		C103.315,72.943,103.166,70.59,107.501,70.59z"/>
	<path fill="#86461B" d="M107.501,70.59v6.949c15.619,0,20.777-8.33,22.303-10.648c1.134-1.725-7.348,6.053-14.829,6.053
		C111.687,72.943,111.835,70.59,107.501,70.59z"/>
	<path fill="#442917" d="M107.696,24.363V-0.151c-25.607,0-30.39,9.567-31.586,27.503c-1.196,17.937,1.504,24.113,3.293,24.089
		s0.827-20.564,3.284-24.986C87.171,18.384,95.188,24.363,107.696,24.363z"/>
	<path fill="#442917" d="M107.696,24.363V-0.151c25.609,0,30.393,9.567,31.588,27.503c1.195,17.937-1.504,24.113-3.293,24.089
		s-0.828-20.564-3.283-24.986C128.224,18.384,120.206,24.363,107.696,24.363z"/>
	<path fill="#744A25" d="M91.579,83.811C80.287,87.623,71.179,94.59,71.179,99.85h20.4L91.579,83.811L91.579,83.811z"/>
	<path fill="#573514" d="M92.666,99.85V82.658c0,0-2.915,1.121-3.924,1.645L85.767,99.85H92.666L92.666,99.85z"/>
	<path fill="#744A25" d="M123.423,83.811c11.293,3.813,20.399,10.779,20.399,16.039h-20.399V83.811L123.423,83.811z"/>
	<path fill="#573514" d="M122.337,99.85V82.658c0,0,2.914,1.121,3.924,1.645l2.976,15.547H122.337L122.337,99.85z"/>
</g>
</svg>
