<?xml version="1.0" encoding="utf-8"?>
<!-- Generator: Adobe Illustrator 16.0.0, SVG Export Plug-In . SVG Version: 6.00 Build 0)  -->
<!DOCTYPE svg PUBLIC "-//W3C//DTD SVG 1.1//EN" "http://www.w3.org/Graphics/SVG/1.1/DTD/svg11.dtd">
<svg version="1.1" id="Layer_3" xmlns="http://www.w3.org/2000/svg" xmlns:xlink="http://www.w3.org/1999/xlink" x="0px" y="0px"
	 width="215px" height="100px" viewBox="0 0 215 100" enable-background="new 0 0 215 100" xml:space="preserve">
<g>
	<g>
		<rect x="100.025" y="74.385" fill="#F9EB9D" width="14.949" height="16.742"/>
		<path fill="#917C51" d="M100.025,76.358c0,0,6.288,4.004,14.949,3.075v-5.049h-14.949V76.358z"/>
		<ellipse fill="#C9A469" cx="78.471" cy="48.425" rx="7.293" ry="8.321"/>
		<ellipse fill="#C9A469" cx="136.527" cy="48.425" rx="7.293" ry="8.321"/>
		<path fill="#F9EB9D" d="M136.498,32.531c0-12.257-8.969-21.225-28.998-21.225c-20.03,0-28.999,8.969-28.999,21.225
			c0,12.257-2.092,44.544,28.999,44.544C138.592,77.076,136.498,44.789,136.498,32.531z"/>
		<g>
			<g>
				<ellipse fill="#3B2519" cx="93.375" cy="46.433" rx="3.139" ry="3.438"/>
				<circle fill="#FFFFFF" cx="92.006" cy="44.915" r="0.939"/>
			</g>
			<path d="M88.354,37.913c1.484,0.742,3.868-2.522,9.324,0.318c0.994,0.518,1.588-4.428-4.26-4.428
				C88.354,33.802,87.457,37.465,88.354,37.913z"/>
			<g>
				<ellipse fill="#3B2519" cx="122.012" cy="46.433" rx="3.139" ry="3.438"/>
				<circle fill="#FFFFFF" cx="120.645" cy="44.915" r="0.939"/>
			</g>
			<path d="M126.646,37.913c-1.484,0.742-3.867-2.522-9.324,0.318c-0.994,0.518-1.588-4.428,4.26-4.428
				C126.646,33.802,127.543,37.465,126.646,37.913z"/>
		</g>
		<path fill="#AF7954" d="M107.5,58.526c-3.102,0-4.97-2.317-4.97-1.196s0.897,3.251,4.97,3.251s4.971-2.13,4.971-3.251
			C112.471,56.211,110.602,58.526,107.5,58.526z"/>
		<path fill="#AF7954" d="M107.5,68.836c-1.072,0-1.72-0.804-1.72-0.414c0,0.389,0.312,1.125,1.72,1.125s1.719-0.736,1.719-1.125
			C109.219,68.032,108.572,68.836,107.5,68.836z"/>
		<path fill="#AD684D" d="M107.5,65.978c-4.916,0-7.877-2.003-7.877-1.494c0,0.507,1.42,2.504,7.877,2.504s7.879-1.997,7.879-2.504
			C115.377,63.975,112.416,65.978,107.5,65.978z"/>
	</g>
	<path fill="#D58E64" d="M107.5,81.112v18.834H71.177C71.177,92.323,90.31,81.112,107.5,81.112z"/>
	<path fill="#D58E64" d="M107.5,81.112v18.834h36.322C143.822,92.323,124.689,81.112,107.5,81.112z"/>
	<path fill="#BF805A" d="M107.5,81.112c-3.656,0-7.399,0.511-11.029,1.383c0.025,0.033,4.027,5.193,11.029,5.193
		c6.486,0,10.797-4.42,11.422-5.101C115.17,81.657,111.287,81.112,107.5,81.112z"/>
	<path fill="#F9EB9D" d="M100.025,81.764c0,0,2.188,2.711,7.475,2.711s7.476-2.711,7.476-2.711S107.219,78.94,100.025,81.764z"/>
	<path d="M107.5,70.687v6.95c-15.621,0-20.776-8.33-22.305-10.649c-1.132-1.724,7.349,6.053,14.83,6.053
		C103.314,73.04,103.164,70.687,107.5,70.687z"/>
	<path d="M107.5,70.687v6.95c15.619,0,20.777-8.33,22.303-10.649c1.134-1.724-7.348,6.053-14.829,6.053
		C111.686,73.04,111.834,70.687,107.5,70.687z"/>
	<path d="M107.695,24.46V-0.054c-25.607,0-30.39,9.567-31.586,27.503c-1.196,17.938,1.504,24.112,3.293,24.089
		c1.789-0.022,0.827-20.564,3.284-24.986C87.17,18.481,95.188,24.46,107.695,24.46z"/>
	<path d="M107.695,24.46V-0.054c25.609,0,30.393,9.567,31.588,27.503c1.195,17.938-1.504,24.112-3.293,24.089
		c-1.789-0.022-0.828-20.564-3.283-24.986C128.223,18.481,120.205,24.46,107.695,24.46z"/>
	<path fill="#744A25" d="M91.578,83.907c-11.292,3.813-20.399,10.779-20.399,16.039h20.4L91.578,83.907L91.578,83.907z"/>
	<path fill="#573514" d="M92.665,99.946v-17.19c0,0-2.915,1.121-3.924,1.645l-2.975,15.547L92.665,99.946L92.665,99.946z"/>
	<path fill="#744A25" d="M123.422,83.907c11.293,3.813,20.399,10.779,20.399,16.039h-20.399V83.907L123.422,83.907z"/>
	<path fill="#573514" d="M122.336,99.946v-17.19c0,0,2.914,1.121,3.924,1.645l2.976,15.547L122.336,99.946L122.336,99.946z"/>
</g>
</svg>
