<?xml version="1.0" encoding="utf-8"?>
<!-- Generator: Adobe Illustrator 16.0.0, SVG Export Plug-In . SVG Version: 6.00 Build 0)  -->
<!DOCTYPE svg PUBLIC "-//W3C//DTD SVG 1.1//EN" "http://www.w3.org/Graphics/SVG/1.1/DTD/svg11.dtd">
<svg version="1.1" xmlns="http://www.w3.org/2000/svg" xmlns:xlink="http://www.w3.org/1999/xlink" x="0px" y="0px" width="215px"
	 height="100px" viewBox="0 0 215 100" enable-background="new 0 0 215 100" xml:space="preserve">
<g id="Capa_1">
	<g>
		<path fill="#663D77" d="M108.338,86.959V75.68c0,0,17.903-0.543,17.903,10.293L108.338,86.959z"/>
		<path fill="#663D77" d="M106.804,86.959V75.68c0,0-17.903-0.543-17.903,10.293L106.804,86.959z"/>
		<g>
			<g>
				<rect x="100.46" y="75.679" fill="#FDCC9B" width="14.223" height="15.93"/>
				<path fill="#FCBC85" d="M100.46,77.555c0,0,5.982,3.811,14.223,2.928v-4.804H100.46V77.555z"/>
				<ellipse fill="#FCBC85" cx="79.951" cy="50.979" rx="6.94" ry="7.918"/>
				<ellipse fill="#FCBC85" cx="135.19" cy="50.979" rx="6.94" ry="7.918"/>
				<path fill="#F9EB9D" d="M135.162,35.855c0-11.663-8.533-20.196-27.591-20.196c-19.059,0-27.592,8.534-27.592,20.196
					c0,11.663-1.991,42.383,27.592,42.383S135.162,47.519,135.162,35.855z"/>
				<g>
					<g>
						<ellipse fill="#3B2519" cx="94.132" cy="49.083" rx="2.987" ry="3.271"/>
						<circle fill="#FFFFFF" cx="92.83" cy="47.638" r="0.893"/>
					</g>
					<path d="M89.354,42.029c1.413,0.541,3.68-1.838,8.872,0.231c0.946,0.377,1.511-3.226-4.054-3.226
						C89.354,39.035,88.5,41.703,89.354,42.029z"/>
					<g>
						<ellipse fill="#3B2519" cx="121.379" cy="49.083" rx="2.987" ry="3.271"/>
						<circle fill="#FFFFFF" cx="120.077" cy="47.638" r="0.894"/>
					</g>
					<path d="M125.788,42.029c-1.413,0.541-3.68-1.838-8.872,0.231c-0.945,0.377-1.51-3.226,4.055-3.226
						C125.788,39.035,126.642,41.703,125.788,42.029z"/>
				</g>
				<path fill="#FCBC85" d="M107.571,60.589c-2.952,0-4.729-2.204-4.729-1.138s0.854,3.094,4.729,3.094s4.729-2.027,4.729-3.094
					S110.521,60.589,107.571,60.589z"/>
				<path fill="#FCBC85" d="M107.571,70.396c-1.021,0-1.636-0.762-1.636-0.393s0.295,1.07,1.636,1.07s1.636-0.701,1.636-1.07
					S108.592,70.396,107.571,70.396z"/>
				<path fill="#F7945E" d="M107.571,67.679c-4.679,0-7.497-1.905-7.497-1.423s1.353,2.383,7.497,2.383s7.496-1.9,7.496-2.383
					S112.249,67.679,107.571,67.679z"/>
			</g>
		</g>
		<path fill="#A0E58F" d="M107.571,82.079V100H76.424C76.424,92.746,91.215,82.079,107.571,82.079z"/>
		<path fill="#A0E58F" d="M107.571,82.079V100h31.146C138.717,92.746,123.928,82.079,107.571,82.079z"/>
		<path fill="#F6B1CF" d="M107.571,99.188V82.079c-4.557,0-8.976,0.848-13.003,2.198L107.571,99.188z"/>
		<path fill="#F6B1CF" d="M107.571,99.188V82.079c4.556,0,8.976,0.848,13.003,2.198L107.571,99.188z"/>
		<path fill="#F283B4" d="M107.571,82.079c-3.314,0-6.554,0.454-9.629,1.213c0.438,2.662,2.235,8.122,9.629,8.122
			c7.393,0,9.19-5.46,9.628-8.122C114.125,82.533,110.885,82.079,107.571,82.079z"/>
		<path fill="#FDCC9B" d="M100.46,82.699c0,0,0,6.406,7.111,6.406c7.11,0,7.11-6.406,7.11-6.406S107.304,80.014,100.46,82.699z"/>
		<path fill="#A588BC" d="M96.688,83.416c0.213-1.385-8.283-0.363-8.214,3.543c0.07,3.905,9.387,6.91,11.947,8.333
			s7.111,4.708,7.111,4.708s0.854-3.301-3.129-5.846C100.422,91.608,96.403,85.266,96.688,83.416z"/>
		<path fill="#A588BC" d="M118.35,83.416c-0.213-1.385,8.283-0.363,8.215,3.543c-0.07,3.905-9.388,6.91-11.947,8.333
			c-2.561,1.423-7.111,4.708-7.111,4.708s-0.854-3.301,3.129-5.846C114.616,91.608,118.635,85.266,118.35,83.416z"/>
		<path d="M107.571,0C75.57,0,71.303,27.941,71.303,48.532c0,20.591,10.66,32.548,18.988,35.888c0,0-13.299-23.568-6.756-45.385
			c5.353-17.851,24.037-12.58,24.037-12.58s18.683-5.271,24.036,12.58c6.542,21.817-6.757,45.385-6.757,45.385
			c8.329-3.34,18.988-15.297,18.988-35.888C143.839,27.941,139.572,0,107.571,0z"/>
		<path d="M118.393,31.384c0,0-12.011,6.021-22.618,4.813c-10.606-1.209-14.681,9.787-14.033,17.065l-3.54-16.197l6.4-12.815
			l18.24-9.387l17.235,0.796l8.174,7.097l6.94,8.628l4.879,5.68l-2.348,17.479l-4.969,5.976
			C132.755,60.52,137.25,38.092,118.393,31.384z"/>
	</g>
</g>
<g id="Layer_2">
	<g>
		<g>
			<rect x="251.998" y="-15.301" fill="#F9EB9D" width="14.949" height="16.742"/>
			<path fill="#917C51" d="M251.998-13.328c0,0,6.288,4.004,14.949,3.075v-5.049h-14.949V-13.328z"/>
			<ellipse fill="#C9A469" cx="230.443" cy="-41.261" rx="7.294" ry="8.321"/>
			<ellipse fill="#C9A469" cx="288.5" cy="-41.261" rx="7.293" ry="8.321"/>
			<path fill="#F9EB9D" d="M288.471-57.155c0-12.257-8.969-21.225-28.998-21.225s-28.998,8.969-28.998,21.225
				c0,12.257-2.093,44.544,28.998,44.544C290.564-12.61,288.471-44.897,288.471-57.155z"/>
			<g>
				<g>
					<ellipse fill="#3B2519" cx="245.348" cy="-43.253" rx="3.14" ry="3.438"/>
					<circle fill="#FFFFFF" cx="243.979" cy="-44.771" r="0.939"/>
				</g>
				<path d="M240.326-51.773c1.484,0.742,3.867-2.522,9.324,0.318c0.994,0.518,1.588-4.428-4.26-4.428
					C240.326-55.884,239.43-52.221,240.326-51.773z"/>
				<g>
					<ellipse fill="#3B2519" cx="273.984" cy="-43.253" rx="3.139" ry="3.438"/>
					<circle fill="#FFFFFF" cx="272.617" cy="-44.771" r="0.939"/>
				</g>
				<path d="M278.619-51.773c-1.484,0.742-3.867-2.522-9.324,0.318c-0.994,0.518-1.588-4.428,4.26-4.428
					C278.619-55.884,279.516-52.221,278.619-51.773z"/>
			</g>
			<path fill="#AF7954" d="M259.473-31.16c-3.102,0-4.97-2.317-4.97-1.196s0.897,3.251,4.97,3.251s4.971-2.13,4.971-3.251
				C264.443-33.475,262.574-31.16,259.473-31.16z"/>
			<path fill="#AF7954" d="M259.473-20.85c-1.072,0-1.72-0.804-1.72-0.414c0,0.389,0.312,1.125,1.72,1.125s1.719-0.736,1.719-1.125
				C261.191-21.654,260.545-20.85,259.473-20.85z"/>
			<path fill="#AD684D" d="M259.473-23.708c-4.916,0-7.877-2.003-7.877-1.494c0,0.507,1.42,2.504,7.877,2.504
				s7.879-1.997,7.879-2.504C267.35-25.711,264.389-23.708,259.473-23.708z"/>
		</g>
		<path fill="#D58E64" d="M259.473-8.574V10.26H223.15C223.15,2.637,242.282-8.574,259.473-8.574z"/>
		<path fill="#D58E64" d="M259.473-8.574V10.26h36.322C295.795,2.637,276.662-8.574,259.473-8.574z"/>
		<path fill="#BF805A" d="M259.473-8.574c-3.656,0-7.399,0.511-11.029,1.383c0.025,0.033,4.027,5.193,11.029,5.193
			c6.486,0,10.797-4.42,11.422-5.101C267.143-8.029,263.26-8.574,259.473-8.574z"/>
		<path fill="#F9EB9D" d="M251.998-7.922c0,0,2.188,2.711,7.475,2.711s7.476-2.711,7.476-2.711S259.191-10.746,251.998-7.922z"/>
		<path d="M259.473-19v6.95c-15.621,0-20.776-8.33-22.305-10.649c-1.132-1.724,7.35,6.053,14.83,6.053
			C255.287-16.646,255.137-19,259.473-19z"/>
		<path d="M259.473-19v6.95c15.619,0,20.777-8.33,22.303-10.649c1.134-1.724-7.348,6.053-14.829,6.053
			C263.658-16.646,263.807-19,259.473-19z"/>
		<path d="M259.668-65.226V-89.74c-25.607,0-30.39,9.567-31.586,27.503c-1.195,17.938,1.504,24.112,3.293,24.089
			c1.789-0.022,0.827-20.564,3.284-24.986C239.143-71.205,247.16-65.226,259.668-65.226z"/>
		<path d="M259.668-65.226V-89.74c25.609,0,30.393,9.567,31.588,27.503c1.195,17.938-1.504,24.112-3.293,24.089
			c-1.789-0.022-0.828-20.564-3.283-24.986C280.195-71.205,272.178-65.226,259.668-65.226z"/>
		<path fill="#744A25" d="M243.551-5.779C232.258-1.965,223.15,5,223.15,10.26h20.4V-5.779L243.551-5.779z"/>
		<path fill="#573514" d="M244.637,10.26V-6.93c0,0-2.914,1.121-3.924,1.645l-2.975,15.547L244.637,10.26L244.637,10.26z"/>
		<path fill="#744A25" d="M275.395-5.779C286.688-1.965,295.794,5,295.794,10.26h-20.399V-5.779L275.395-5.779z"/>
		<path fill="#573514" d="M274.309,10.26V-6.93c0,0,2.914,1.121,3.924,1.645l2.976,15.547L274.309,10.26L274.309,10.26z"/>
	</g>
</g>
</svg>
