<?xml version="1.0" encoding="utf-8"?>
<!-- Generator: Adobe Illustrator 16.0.0, SVG Export Plug-In . SVG Version: 6.00 Build 0)  -->
<!DOCTYPE svg PUBLIC "-//W3C//DTD SVG 1.1//EN" "http://www.w3.org/Graphics/SVG/1.1/DTD/svg11.dtd">
<svg version="1.1" id="Capa_1" xmlns="http://www.w3.org/2000/svg" xmlns:xlink="http://www.w3.org/1999/xlink" x="0px" y="0px"
	 width="215px" height="100px" viewBox="0 0 215 100" enable-background="new 0 0 215 100" xml:space="preserve">
<g>
	<g>
		<rect x="100.095" y="74.678" fill="#FFFBAB" width="14.809" height="16.585"/>
		<path fill="#AFA668" d="M100.096,76.631c0,0,6.229,3.967,14.809,3.047v-5.001h-14.809V76.631z"/>
		<ellipse fill="#AFA668" cx="78.742" cy="48.959" rx="7.226" ry="8.244"/>
		<ellipse fill="#AFA668" cx="136.258" cy="48.959" rx="7.227" ry="8.244"/>
		<path fill="#FFFBAB" d="M136.229,33.212c0-12.143-8.885-21.029-28.729-21.029s-28.729,8.885-28.729,21.029
			c0,12.143-2.073,44.13,28.729,44.13C138.303,77.343,136.229,45.355,136.229,33.212z"/>
		<g>
			<g>
				<ellipse fill="#3B2519" cx="93.507" cy="46.984" rx="3.11" ry="3.406"/>
				<circle fill="#FFFFFF" cx="92.151" cy="45.48" r="0.93"/>
			</g>
			<path fill="#51362A" d="M88.532,38.543c1.471,0.735,3.832-2.499,9.237,0.315c0.985,0.513,1.573-4.387-4.22-4.387
				C88.532,34.471,87.643,38.1,88.532,38.543z"/>
			<g>
				<ellipse fill="#3B2519" cx="121.877" cy="46.984" rx="3.109" ry="3.406"/>
				<circle fill="#FFFFFF" cx="120.521" cy="45.48" r="0.93"/>
			</g>
			<path fill="#51362A" d="M126.469,38.543c-1.471,0.735-3.832-2.499-9.238,0.315c-0.984,0.513-1.572-4.387,4.222-4.387
				C126.469,34.471,127.356,38.1,126.469,38.543z"/>
		</g>
		<path fill="#FCBC85" d="M107.5,58.965c-3.073,0-4.924-2.295-4.924-1.186c0,1.111,0.889,3.222,4.924,3.222s4.924-2.11,4.924-3.222
			C112.424,56.669,110.572,58.965,107.5,58.965z"/>
		<path fill="#FCBC85" d="M107.5,69.177c-1.063,0-1.703-0.794-1.703-0.409c0,0.384,0.307,1.113,1.703,1.113
			c1.396,0,1.703-0.729,1.703-1.113C109.203,68.383,108.563,69.177,107.5,69.177z"/>
		<path fill="#F9A97E" d="M107.5,66.347c-4.871,0-7.805-1.983-7.805-1.48s1.409,2.481,7.805,2.481s7.805-1.979,7.805-2.481
			S112.371,66.347,107.5,66.347z"/>
	</g>
	<path fill="#F42121" d="M107.5,81.341V100H71.516C71.516,92.447,90.47,81.341,107.5,81.341z"/>
	<path fill="#F42121" d="M107.5,81.341V100h35.984C143.484,92.447,124.53,81.341,107.5,81.341z"/>
	<path fill="#930D44" d="M107.5,81.341c-3.622,0-7.331,0.507-10.927,1.37c0.024,0.031,3.988,5.146,10.927,5.146
		c6.426,0,10.697-4.38,11.316-5.053C115.1,81.881,111.254,81.341,107.5,81.341z"/>
	<path fill="#FFFBAB" d="M100.095,81.986c0,0,2.166,2.687,7.404,2.687c5.239,0,7.405-2.687,7.405-2.687
		S107.223,79.189,100.095,81.986z"/>
	<path fill="#381D13" d="M131.119,9.593c0,0-10.662-13.55-32.822-8.441C76.137,6.26,74.476,19.588,75.143,32.555
		c0.667,12.968,2.443,20.575,4.545,19.634c2.102-0.939,1.008-9.5,1.23-11.475c0.222-1.976,2.221-10.909,15.699-9.576
		c13.478,1.333,24.835-3.554,24.835-3.554s4.571,5.779,7.58,6.886c6.013,2.212,4.04,16.962,6.396,16.962
		C137.784,51.434,149.334,17.367,131.119,9.593z"/>
</g>
</svg>
