<?xml version="1.0" encoding="utf-8"?>
<!-- Generator: Adobe Illustrator 16.0.0, SVG Export Plug-In . SVG Version: 6.00 Build 0)  -->
<!DOCTYPE svg PUBLIC "-//W3C//DTD SVG 1.1//EN" "http://www.w3.org/Graphics/SVG/1.1/DTD/svg11.dtd">
<svg version="1.1" id="Capa_1" xmlns="http://www.w3.org/2000/svg" xmlns:xlink="http://www.w3.org/1999/xlink" x="0px" y="0px"
	 width="215px" height="100px" viewBox="0 0 215 100" enable-background="new 0 0 215 100" xml:space="preserve">
<g>
	<path fill="#BFBD71" d="M107.5,32.463v64.493h29.578c0,0,5.619-29.138,5.481-46.685C142.421,32.725,107.5,32.463,107.5,32.463z"/>
	<path fill="#BFBD71" d="M107.5,32.463v64.493H77.923c0,0-5.619-29.138-5.481-46.685C72.579,32.725,107.5,32.463,107.5,32.463z"/>
	<g>
		<g>
			<rect x="100.286" y="75.328" fill="#FDCC9B" width="14.428" height="16.159"/>
			<path fill="#FCBC85" d="M100.286,77.231c0,0,6.069,3.864,14.428,2.97v-4.873h-14.428V77.231z"/>
			<ellipse fill="#FCBC85" cx="79.481" cy="50.271" rx="7.04" ry="8.032"/>
			<ellipse fill="#FCBC85" cx="135.519" cy="50.271" rx="7.04" ry="8.032"/>
			<path fill="#FDCC9B" d="M135.49,34.93c0-11.831-8.656-20.488-27.99-20.488c-19.333,0-27.99,8.657-27.99,20.488
				s-2.02,42.996,27.99,42.996C137.51,77.926,135.49,46.761,135.49,34.93z"/>
			<g>
				<g>
					<ellipse fill="#3B2519" cx="93.867" cy="48.348" rx="3.03" ry="3.318"/>
					<circle fill="#FFFFFF" cx="92.546" cy="46.883" r="0.906"/>
				</g>
				<path fill="#C39371" d="M89.02,41.193c1.433,0.548,3.733-1.864,9,0.235c0.96,0.383,1.533-3.273-4.112-3.273
					C89.02,38.155,88.154,40.862,89.02,41.193z"/>
				<g>
					<ellipse fill="#3B2519" cx="121.508" cy="48.348" rx="3.029" ry="3.318"/>
					<circle fill="#FFFFFF" cx="120.187" cy="46.883" r="0.906"/>
				</g>
				<path fill="#C39371" d="M125.98,41.193c-1.434,0.548-3.733-1.864-9,0.235c-0.959,0.383-1.532-3.273,4.112-3.273
					C125.98,38.155,126.846,40.862,125.98,41.193z"/>
			</g>
			<path fill="#FCBC85" d="M107.5,60.021c-2.994,0-4.797-2.237-4.797-1.155s0.866,3.139,4.797,3.139
				c3.932,0,4.797-2.056,4.797-3.139C112.297,57.783,110.494,60.021,107.5,60.021z"/>
			<path fill="#FCBC85" d="M107.5,69.97c-1.035,0-1.659-0.773-1.659-0.399s0.3,1.086,1.659,1.086c1.36,0,1.66-0.712,1.66-1.086
				S108.535,69.97,107.5,69.97z"/>
			<path fill="#F7945E" d="M107.5,67.213c-4.746,0-7.604-1.933-7.604-1.443c0,0.49,1.372,2.417,7.604,2.417s7.604-1.927,7.604-2.417
				C115.104,65.281,112.245,67.213,107.5,67.213z"/>
		</g>
		<circle fill="#F9AA8D" cx="89.971" cy="58.953" r="4.112"/>
		<circle fill="#F9AA8D" cx="125.535" cy="58.953" r="4.112"/>
	</g>
	<path fill="#EEE1D6" d="M107.5,81.821V100H75.904C75.904,92.643,90.908,81.821,107.5,81.821z"/>
	<path fill="#EEE1D6" d="M107.5,81.821V100h31.596C139.096,92.643,124.092,81.821,107.5,81.821z"/>
	<path fill="#B7774C" d="M101.479,82.289c-0.093,0.013-0.186,0.031-0.279,0.045c-1.945,0.312-3.843,0.751-5.666,1.303L107.5,100
		v-9.09l-5.398-8.695C101.895,82.244,101.685,82.257,101.479,82.289z"/>
	<path fill="#B7774C" d="M113.521,82.289c0.093,0.013,0.186,0.031,0.279,0.045c1.945,0.312,3.843,0.751,5.666,1.303L107.5,100v-9.09
		l5.398-8.695C113.104,82.244,113.315,82.257,113.521,82.289z"/>
	<path fill="#FFFC97" d="M107.5,0C74.893,0,71.072,23.064,72.441,50.271S96.896,90.91,96.896,90.91s-25.869-37.021-4.351-69.485
		c0,0-4.041,6.949-3.822,12.769c0,0,5.069-1.731,18.776-1.731c13.707,0,18.775,1.731,18.775,1.731
		c0.22-5.82-3.82-12.769-3.82-12.769c21.518,32.462-4.352,69.485-4.352,69.485s23.086-13.433,24.455-40.639S140.107,0,107.5,0z"/>
	<path fill="#FDCC9B" d="M100.286,82.45l7.214,11.98l7.213-11.981C114.714,82.449,107.229,79.725,100.286,82.45z"/>
</g>
</svg>
