<?xml version="1.0" encoding="utf-8"?>
<!-- Generator: Adobe Illustrator 16.0.0, SVG Export Plug-In . SVG Version: 6.00 Build 0)  -->
<!DOCTYPE svg PUBLIC "-//W3C//DTD SVG 1.1//EN" "http://www.w3.org/Graphics/SVG/1.1/DTD/svg11.dtd">
<svg version="1.1" id="Capa_1" xmlns="http://www.w3.org/2000/svg" xmlns:xlink="http://www.w3.org/1999/xlink" x="0px" y="0px"
	 width="215px" height="100px" viewBox="0 0 215 100" enable-background="new 0 0 215 100" xml:space="preserve">
<g>
	<path d="M77.039,71.253c3.36,9.374-1.908,26.627-1.908,26.627h30.46V44.875l-33.429,6.408C72.163,51.282,74,62.777,77.039,71.253z"
		/>
	<path d="M134.173,71.253c-3.36,9.374,1.909,26.627,1.909,26.627h-30.461V44.875l33.428,6.408
		C139.049,51.282,137.212,62.777,134.173,71.253z"/>
	<g>
		<g>
			<rect x="98.524" y="75.83" fill="#89532B" width="14.134" height="15.83"/>
			<path fill="#673E20" d="M98.524,77.695c0,0,5.946,3.785,14.134,2.908V75.83H98.524V77.695z"/>
			<ellipse fill="#673E20" cx="78.142" cy="51.282" rx="6.897" ry="7.868"/>
			<ellipse fill="#673E20" cx="133.04" cy="51.282" rx="6.897" ry="7.868"/>
			<path fill="#89532B" d="M133.012,36.253c0-11.59-8.48-20.071-27.42-20.071c-18.94,0-27.421,8.481-27.421,20.071
				s-1.979,42.122,27.421,42.122C134.99,78.374,133.012,47.844,133.012,36.253z"/>
			<g>
				<g>
					<ellipse fill="#3B2519" cx="92.235" cy="49.398" rx="2.968" ry="3.251"/>
					<circle fill="#FFFFFF" cx="90.941" cy="47.963" r="0.888"/>
				</g>
				<path fill="#51362A" d="M87.487,42.389c1.403,0.538,3.658-1.826,8.816,0.23c0.94,0.375,1.502-3.207-4.028-3.207
					C87.487,39.413,86.639,42.064,87.487,42.389z"/>
				<g>
					<ellipse fill="#3B2519" cx="119.313" cy="49.398" rx="2.968" ry="3.251"/>
					<circle fill="#FFFFFF" cx="118.02" cy="47.963" r="0.888"/>
				</g>
				<path fill="#51362A" d="M123.695,42.389c-1.403,0.538-3.656-1.826-8.816,0.23c-0.939,0.375-1.502-3.207,4.029-3.207
					C123.695,39.413,124.543,42.064,123.695,42.389z"/>
			</g>
			<path fill="#673E20" d="M105.591,60.833c-2.933,0-4.7-2.19-4.7-1.131c0,1.061,0.848,3.075,4.7,3.075c3.853,0,4.7-2.015,4.7-3.075
				C110.291,58.643,108.524,60.833,105.591,60.833z"/>
			<path fill="#954F2C" d="M105.591,70.58c-1.014,0-1.625-0.758-1.625-0.391s0.293,1.063,1.625,1.063
				c1.333,0,1.626-0.696,1.626-1.063S106.605,70.58,105.591,70.58z"/>
			<path fill="#87491C" d="M105.591,67.879c-4.648,0-7.45-1.893-7.45-1.412c0,0.479,1.345,2.367,7.45,2.367
				c6.105,0,7.45-1.888,7.45-2.367C113.041,65.986,110.24,67.879,105.591,67.879z"/>
		</g>
		<circle fill="#C95B5B" cx="88.418" cy="59.788" r="4.029"/>
		<circle fill="#C95B5B" cx="123.26" cy="59.788" r="4.028"/>
	</g>
	<path fill="#B5B679" d="M106.591,82.19V100H75.637C75.637,92.791,90.336,82.19,106.591,82.19z"/>
	<path fill="#B5B679" d="M105.591,82.19V100h30.954C136.545,92.79,119.181,82.19,105.591,82.19z"/>
	<path fill="#563C60" d="M105.499,82.19c-3.496,0-7.076,0.483-10.546,1.308c0.023,0.031,3.85,4.912,10.546,4.912
		c6.202,0,10.325-4.18,10.923-4.823C112.834,82.707,109.122,82.19,105.499,82.19z"/>
	<path fill="#89532B" d="M98.524,82.807c0,0,2.067,2.564,7.067,2.564c5,0,7.067-2.564,7.067-2.564S105.326,80.137,98.524,82.807z"/>
	<path d="M130.468,11.801C112.658-9.402,78.735-0.921,71.245,28.338c-7.49,29.259,5.794,42.915,5.794,42.915
		C71.945,54.01,83.824,36.183,94,35.971c10.177-0.212,26.291-5.937,26.291-5.937s2.705,13.763,11.449,18.816
		c6.572,3.799,4.076,14.966,2.38,22.402C140.48,68.834,159.303,20.494,130.468,11.801z"/>
</g>
</svg>
